<mxfile host="www.draw.io" modified="2020-02-25T12:03:22.821Z" agent="Mozilla/5.0 (Macintosh; Intel Mac OS X 10_14_6) AppleWebKit/537.36 (KHTML, like Gecko) Chrome/80.0.3987.116 Safari/537.36" etag="vCYPuZqaUNopD8jwRUCF" version="12.7.4" type="github" pages="2">
  <diagram id="C5RBs43oDa-KdzZeNtuy" name="Page-1">
    <mxGraphModel dx="1166" dy="651" grid="1" gridSize="10" guides="1" tooltips="1" connect="1" arrows="1" fold="1" page="1" pageScale="1" pageWidth="1654" pageHeight="2336" math="0" shadow="0">
      <root>
        <mxCell id="WIyWlLk6GJQsqaUBKTNV-0" />
        <mxCell id="WIyWlLk6GJQsqaUBKTNV-1" parent="WIyWlLk6GJQsqaUBKTNV-0" />
        <mxCell id="2xSTA7HAFZbU5PuNHEdF-20" style="edgeStyle=orthogonalEdgeStyle;rounded=0;orthogonalLoop=1;jettySize=auto;html=1;exitX=0.5;exitY=1;exitDx=0;exitDy=0;" edge="1" parent="WIyWlLk6GJQsqaUBKTNV-1" source="2xSTA7HAFZbU5PuNHEdF-0" target="2xSTA7HAFZbU5PuNHEdF-14">
          <mxGeometry relative="1" as="geometry" />
        </mxCell>
        <mxCell id="2xSTA7HAFZbU5PuNHEdF-0" value="关键词库" style="whiteSpace=wrap;html=1;align=center;" vertex="1" parent="WIyWlLk6GJQsqaUBKTNV-1">
          <mxGeometry x="750" y="530" width="100" height="40" as="geometry" />
        </mxCell>
        <mxCell id="2xSTA7HAFZbU5PuNHEdF-22" style="edgeStyle=orthogonalEdgeStyle;rounded=0;orthogonalLoop=1;jettySize=auto;html=1;exitX=1;exitY=0.5;exitDx=0;exitDy=0;entryX=0;entryY=0.5;entryDx=0;entryDy=0;" edge="1" parent="WIyWlLk6GJQsqaUBKTNV-1" source="2xSTA7HAFZbU5PuNHEdF-8" target="2xSTA7HAFZbU5PuNHEdF-13">
          <mxGeometry relative="1" as="geometry" />
        </mxCell>
        <mxCell id="2xSTA7HAFZbU5PuNHEdF-24" style="edgeStyle=orthogonalEdgeStyle;rounded=0;orthogonalLoop=1;jettySize=auto;html=1;" edge="1" parent="WIyWlLk6GJQsqaUBKTNV-1" source="2xSTA7HAFZbU5PuNHEdF-8" target="2xSTA7HAFZbU5PuNHEdF-12">
          <mxGeometry relative="1" as="geometry" />
        </mxCell>
        <mxCell id="2xSTA7HAFZbU5PuNHEdF-8" value="用户" style="whiteSpace=wrap;html=1;align=center;" vertex="1" parent="WIyWlLk6GJQsqaUBKTNV-1">
          <mxGeometry x="210" y="620" width="100" height="40" as="geometry" />
        </mxCell>
        <mxCell id="2xSTA7HAFZbU5PuNHEdF-18" style="edgeStyle=orthogonalEdgeStyle;rounded=0;orthogonalLoop=1;jettySize=auto;html=1;exitX=1;exitY=0.5;exitDx=0;exitDy=0;entryX=0;entryY=0.5;entryDx=0;entryDy=0;" edge="1" parent="WIyWlLk6GJQsqaUBKTNV-1" source="2xSTA7HAFZbU5PuNHEdF-9" target="2xSTA7HAFZbU5PuNHEdF-15">
          <mxGeometry relative="1" as="geometry" />
        </mxCell>
        <mxCell id="2xSTA7HAFZbU5PuNHEdF-9" value="帖子" style="whiteSpace=wrap;html=1;align=center;" vertex="1" parent="WIyWlLk6GJQsqaUBKTNV-1">
          <mxGeometry x="210" y="350" width="100" height="40" as="geometry" />
        </mxCell>
        <mxCell id="2xSTA7HAFZbU5PuNHEdF-10" value="回帖" style="whiteSpace=wrap;html=1;align=center;" vertex="1" parent="WIyWlLk6GJQsqaUBKTNV-1">
          <mxGeometry x="210" y="880" width="100" height="40" as="geometry" />
        </mxCell>
        <mxCell id="2xSTA7HAFZbU5PuNHEdF-16" style="edgeStyle=orthogonalEdgeStyle;rounded=0;orthogonalLoop=1;jettySize=auto;html=1;exitX=0.5;exitY=1;exitDx=0;exitDy=0;entryX=0.5;entryY=0;entryDx=0;entryDy=0;" edge="1" parent="WIyWlLk6GJQsqaUBKTNV-1" source="2xSTA7HAFZbU5PuNHEdF-11" target="2xSTA7HAFZbU5PuNHEdF-8">
          <mxGeometry relative="1" as="geometry" />
        </mxCell>
        <mxCell id="2xSTA7HAFZbU5PuNHEdF-17" style="edgeStyle=orthogonalEdgeStyle;rounded=0;orthogonalLoop=1;jettySize=auto;html=1;exitX=0.5;exitY=0;exitDx=0;exitDy=0;entryX=0.5;entryY=1;entryDx=0;entryDy=0;" edge="1" parent="WIyWlLk6GJQsqaUBKTNV-1" source="2xSTA7HAFZbU5PuNHEdF-11" target="2xSTA7HAFZbU5PuNHEdF-9">
          <mxGeometry relative="1" as="geometry" />
        </mxCell>
        <mxCell id="2xSTA7HAFZbU5PuNHEdF-11" value="使用" style="shape=rhombus;perimeter=rhombusPerimeter;whiteSpace=wrap;html=1;align=center;" vertex="1" parent="WIyWlLk6GJQsqaUBKTNV-1">
          <mxGeometry x="200" y="460" width="120" height="60" as="geometry" />
        </mxCell>
        <mxCell id="2xSTA7HAFZbU5PuNHEdF-25" style="edgeStyle=orthogonalEdgeStyle;rounded=0;orthogonalLoop=1;jettySize=auto;html=1;exitX=0.5;exitY=1;exitDx=0;exitDy=0;entryX=0.5;entryY=0;entryDx=0;entryDy=0;" edge="1" parent="WIyWlLk6GJQsqaUBKTNV-1" source="2xSTA7HAFZbU5PuNHEdF-12" target="2xSTA7HAFZbU5PuNHEdF-10">
          <mxGeometry relative="1" as="geometry" />
        </mxCell>
        <mxCell id="2xSTA7HAFZbU5PuNHEdF-12" value="使用" style="shape=rhombus;perimeter=rhombusPerimeter;whiteSpace=wrap;html=1;align=center;" vertex="1" parent="WIyWlLk6GJQsqaUBKTNV-1">
          <mxGeometry x="200" y="740" width="120" height="60" as="geometry" />
        </mxCell>
        <mxCell id="2xSTA7HAFZbU5PuNHEdF-13" value="获取" style="shape=rhombus;perimeter=rhombusPerimeter;whiteSpace=wrap;html=1;align=center;" vertex="1" parent="WIyWlLk6GJQsqaUBKTNV-1">
          <mxGeometry x="470" y="610" width="120" height="60" as="geometry" />
        </mxCell>
        <mxCell id="2xSTA7HAFZbU5PuNHEdF-14" value="本地存储" style="whiteSpace=wrap;html=1;align=center;" vertex="1" parent="WIyWlLk6GJQsqaUBKTNV-1">
          <mxGeometry x="750" y="770" width="100" height="40" as="geometry" />
        </mxCell>
        <mxCell id="2xSTA7HAFZbU5PuNHEdF-19" style="edgeStyle=orthogonalEdgeStyle;rounded=0;orthogonalLoop=1;jettySize=auto;html=1;exitX=1;exitY=0.5;exitDx=0;exitDy=0;" edge="1" parent="WIyWlLk6GJQsqaUBKTNV-1" source="2xSTA7HAFZbU5PuNHEdF-15" target="2xSTA7HAFZbU5PuNHEdF-0">
          <mxGeometry relative="1" as="geometry" />
        </mxCell>
        <mxCell id="2xSTA7HAFZbU5PuNHEdF-15" value="发表" style="shape=rhombus;perimeter=rhombusPerimeter;whiteSpace=wrap;html=1;align=center;" vertex="1" parent="WIyWlLk6GJQsqaUBKTNV-1">
          <mxGeometry x="550" y="340" width="120" height="60" as="geometry" />
        </mxCell>
        <mxCell id="2xSTA7HAFZbU5PuNHEdF-21" value="网络数据库" style="whiteSpace=wrap;html=1;align=center;" vertex="1" parent="WIyWlLk6GJQsqaUBKTNV-1">
          <mxGeometry x="750" y="930" width="100" height="40" as="geometry" />
        </mxCell>
        <mxCell id="2xSTA7HAFZbU5PuNHEdF-28" value="广告位" style="whiteSpace=wrap;html=1;align=center;" vertex="1" parent="WIyWlLk6GJQsqaUBKTNV-1">
          <mxGeometry x="520" y="1000" width="100" height="40" as="geometry" />
        </mxCell>
      </root>
    </mxGraphModel>
  </diagram>
  <diagram id="_A5TI4DRk0UdSrh2-4cl" name="Page-2">
    <mxGraphModel dx="1166" dy="651" grid="1" gridSize="10" guides="1" tooltips="1" connect="1" arrows="1" fold="1" page="1" pageScale="1" pageWidth="2339" pageHeight="3300" math="0" shadow="0">
      <root>
        <mxCell id="f6uy8CiDOMCb5-gXpElu-0" />
        <mxCell id="f6uy8CiDOMCb5-gXpElu-1" parent="f6uy8CiDOMCb5-gXpElu-0" />
        <mxCell id="7smrC5BkzZH1CydqaBpp-7" style="edgeStyle=none;rounded=0;orthogonalLoop=1;jettySize=auto;html=1;exitX=1;exitY=0.5;exitDx=0;exitDy=0;entryX=0;entryY=0.5;entryDx=0;entryDy=0;endArrow=none;endFill=0;" edge="1" parent="f6uy8CiDOMCb5-gXpElu-1" source="7smrC5BkzZH1CydqaBpp-0" target="7smrC5BkzZH1CydqaBpp-1">
          <mxGeometry relative="1" as="geometry" />
        </mxCell>
        <mxCell id="7smrC5BkzZH1CydqaBpp-10" style="edgeStyle=orthogonalEdgeStyle;rounded=0;orthogonalLoop=1;jettySize=auto;html=1;exitX=0.5;exitY=1;exitDx=0;exitDy=0;endArrow=none;endFill=0;entryX=0;entryY=0.5;entryDx=0;entryDy=0;" edge="1" parent="f6uy8CiDOMCb5-gXpElu-1" source="7smrC5BkzZH1CydqaBpp-0" target="7smrC5BkzZH1CydqaBpp-6">
          <mxGeometry relative="1" as="geometry">
            <mxPoint x="280" y="710" as="targetPoint" />
          </mxGeometry>
        </mxCell>
        <mxCell id="7smrC5BkzZH1CydqaBpp-0" value="用户" style="whiteSpace=wrap;html=1;align=center;" vertex="1" parent="f6uy8CiDOMCb5-gXpElu-1">
          <mxGeometry x="230" y="330" width="100" height="40" as="geometry" />
        </mxCell>
        <mxCell id="7smrC5BkzZH1CydqaBpp-8" style="edgeStyle=none;rounded=0;orthogonalLoop=1;jettySize=auto;html=1;exitX=1;exitY=0.5;exitDx=0;exitDy=0;entryX=0;entryY=0.5;entryDx=0;entryDy=0;endArrow=none;endFill=0;" edge="1" parent="f6uy8CiDOMCb5-gXpElu-1" source="7smrC5BkzZH1CydqaBpp-1" target="7smrC5BkzZH1CydqaBpp-2">
          <mxGeometry relative="1" as="geometry" />
        </mxCell>
        <mxCell id="7smrC5BkzZH1CydqaBpp-1" value="使用" style="shape=rhombus;perimeter=rhombusPerimeter;whiteSpace=wrap;html=1;align=center;" vertex="1" parent="f6uy8CiDOMCb5-gXpElu-1">
          <mxGeometry x="440" y="320" width="120" height="60" as="geometry" />
        </mxCell>
        <mxCell id="7smrC5BkzZH1CydqaBpp-19" style="edgeStyle=none;rounded=0;orthogonalLoop=1;jettySize=auto;html=1;exitX=1;exitY=0.5;exitDx=0;exitDy=0;entryX=0;entryY=0.5;entryDx=0;entryDy=0;endArrow=none;endFill=0;" edge="1" parent="f6uy8CiDOMCb5-gXpElu-1" source="7smrC5BkzZH1CydqaBpp-2" target="7smrC5BkzZH1CydqaBpp-4">
          <mxGeometry relative="1" as="geometry" />
        </mxCell>
        <mxCell id="7smrC5BkzZH1CydqaBpp-2" value="发帖" style="whiteSpace=wrap;html=1;align=center;" vertex="1" parent="f6uy8CiDOMCb5-gXpElu-1">
          <mxGeometry x="700" y="230" width="100" height="40" as="geometry" />
        </mxCell>
        <mxCell id="7smrC5BkzZH1CydqaBpp-9" style="edgeStyle=none;rounded=0;orthogonalLoop=1;jettySize=auto;html=1;exitX=0;exitY=0.5;exitDx=0;exitDy=0;entryX=1;entryY=0.5;entryDx=0;entryDy=0;endArrow=none;endFill=0;" edge="1" parent="f6uy8CiDOMCb5-gXpElu-1" source="7smrC5BkzZH1CydqaBpp-3" target="7smrC5BkzZH1CydqaBpp-1">
          <mxGeometry relative="1" as="geometry" />
        </mxCell>
        <mxCell id="7smrC5BkzZH1CydqaBpp-20" style="edgeStyle=none;rounded=0;orthogonalLoop=1;jettySize=auto;html=1;exitX=1;exitY=0.5;exitDx=0;exitDy=0;endArrow=none;endFill=0;entryX=0;entryY=0.5;entryDx=0;entryDy=0;" edge="1" parent="f6uy8CiDOMCb5-gXpElu-1" source="7smrC5BkzZH1CydqaBpp-3" target="7smrC5BkzZH1CydqaBpp-4">
          <mxGeometry relative="1" as="geometry">
            <mxPoint x="920" y="350" as="targetPoint" />
          </mxGeometry>
        </mxCell>
        <mxCell id="7smrC5BkzZH1CydqaBpp-3" value="回帖" style="whiteSpace=wrap;html=1;align=center;" vertex="1" parent="f6uy8CiDOMCb5-gXpElu-1">
          <mxGeometry x="700" y="430" width="100" height="40" as="geometry" />
        </mxCell>
        <mxCell id="7smrC5BkzZH1CydqaBpp-21" style="edgeStyle=orthogonalEdgeStyle;rounded=0;orthogonalLoop=1;jettySize=auto;html=1;exitX=0.5;exitY=1;exitDx=0;exitDy=0;endArrow=none;endFill=0;entryX=0.5;entryY=0;entryDx=0;entryDy=0;" edge="1" parent="f6uy8CiDOMCb5-gXpElu-1" source="7smrC5BkzZH1CydqaBpp-4" target="7smrC5BkzZH1CydqaBpp-5">
          <mxGeometry relative="1" as="geometry">
            <mxPoint x="1070" y="550" as="targetPoint" />
          </mxGeometry>
        </mxCell>
        <mxCell id="7smrC5BkzZH1CydqaBpp-22" style="edgeStyle=orthogonalEdgeStyle;rounded=0;orthogonalLoop=1;jettySize=auto;html=1;exitX=1;exitY=0.5;exitDx=0;exitDy=0;entryX=0;entryY=0.5;entryDx=0;entryDy=0;endArrow=none;endFill=0;" edge="1" parent="f6uy8CiDOMCb5-gXpElu-1" source="7smrC5BkzZH1CydqaBpp-4" target="7smrC5BkzZH1CydqaBpp-12">
          <mxGeometry relative="1" as="geometry" />
        </mxCell>
        <mxCell id="7smrC5BkzZH1CydqaBpp-4" value="分析" style="shape=rhombus;perimeter=rhombusPerimeter;whiteSpace=wrap;html=1;align=center;" vertex="1" parent="f6uy8CiDOMCb5-gXpElu-1">
          <mxGeometry x="930" y="320" width="120" height="60" as="geometry" />
        </mxCell>
        <mxCell id="7smrC5BkzZH1CydqaBpp-15" style="edgeStyle=orthogonalEdgeStyle;rounded=0;orthogonalLoop=1;jettySize=auto;html=1;exitX=0.5;exitY=1;exitDx=0;exitDy=0;entryX=0.5;entryY=0.167;entryDx=0;entryDy=0;entryPerimeter=0;endArrow=none;endFill=0;" edge="1" parent="f6uy8CiDOMCb5-gXpElu-1" source="7smrC5BkzZH1CydqaBpp-5" target="7smrC5BkzZH1CydqaBpp-13">
          <mxGeometry relative="1" as="geometry" />
        </mxCell>
        <mxCell id="7smrC5BkzZH1CydqaBpp-5" value="关键词库" style="whiteSpace=wrap;html=1;align=center;" vertex="1" parent="f6uy8CiDOMCb5-gXpElu-1">
          <mxGeometry x="940" y="670" width="100" height="40" as="geometry" />
        </mxCell>
        <mxCell id="7smrC5BkzZH1CydqaBpp-11" style="edgeStyle=orthogonalEdgeStyle;rounded=0;orthogonalLoop=1;jettySize=auto;html=1;exitX=1;exitY=0.5;exitDx=0;exitDy=0;entryX=0;entryY=0.5;entryDx=0;entryDy=0;endArrow=none;endFill=0;" edge="1" parent="f6uy8CiDOMCb5-gXpElu-1" source="7smrC5BkzZH1CydqaBpp-6" target="7smrC5BkzZH1CydqaBpp-5">
          <mxGeometry relative="1" as="geometry" />
        </mxCell>
        <mxCell id="7smrC5BkzZH1CydqaBpp-6" value="获取" style="shape=rhombus;perimeter=rhombusPerimeter;whiteSpace=wrap;html=1;align=center;" vertex="1" parent="f6uy8CiDOMCb5-gXpElu-1">
          <mxGeometry x="550" y="660" width="120" height="60" as="geometry" />
        </mxCell>
        <mxCell id="z-ovHuIr4uMnay9UF5sv-4" style="edgeStyle=orthogonalEdgeStyle;rounded=0;orthogonalLoop=1;jettySize=auto;html=1;exitX=1;exitY=0.5;exitDx=0;exitDy=0;entryX=0;entryY=0.5;entryDx=0;entryDy=0;endArrow=none;endFill=0;" edge="1" parent="f6uy8CiDOMCb5-gXpElu-1" source="7smrC5BkzZH1CydqaBpp-12" target="z-ovHuIr4uMnay9UF5sv-0">
          <mxGeometry relative="1" as="geometry" />
        </mxCell>
        <mxCell id="7smrC5BkzZH1CydqaBpp-12" value="声量数据" style="whiteSpace=wrap;html=1;align=center;" vertex="1" parent="f6uy8CiDOMCb5-gXpElu-1">
          <mxGeometry x="1180" y="330" width="100" height="40" as="geometry" />
        </mxCell>
        <mxCell id="7smrC5BkzZH1CydqaBpp-16" style="rounded=0;orthogonalLoop=1;jettySize=auto;html=1;exitX=0.5;exitY=1;exitDx=0;exitDy=0;entryX=0.5;entryY=0;entryDx=0;entryDy=0;endArrow=none;endFill=0;" edge="1" parent="f6uy8CiDOMCb5-gXpElu-1" source="7smrC5BkzZH1CydqaBpp-13" target="7smrC5BkzZH1CydqaBpp-14">
          <mxGeometry relative="1" as="geometry" />
        </mxCell>
        <mxCell id="7smrC5BkzZH1CydqaBpp-13" value="设置" style="shape=rhombus;perimeter=rhombusPerimeter;whiteSpace=wrap;html=1;align=center;" vertex="1" parent="f6uy8CiDOMCb5-gXpElu-1">
          <mxGeometry x="930" y="830" width="120" height="60" as="geometry" />
        </mxCell>
        <mxCell id="7smrC5BkzZH1CydqaBpp-14" value="获取规则" style="whiteSpace=wrap;html=1;align=center;" vertex="1" parent="f6uy8CiDOMCb5-gXpElu-1">
          <mxGeometry x="830" y="990" width="100" height="40" as="geometry" />
        </mxCell>
        <mxCell id="7smrC5BkzZH1CydqaBpp-18" style="edgeStyle=none;rounded=0;orthogonalLoop=1;jettySize=auto;html=1;exitX=0.5;exitY=0;exitDx=0;exitDy=0;entryX=0.5;entryY=1;entryDx=0;entryDy=0;endArrow=none;endFill=0;" edge="1" parent="f6uy8CiDOMCb5-gXpElu-1" source="7smrC5BkzZH1CydqaBpp-17" target="7smrC5BkzZH1CydqaBpp-13">
          <mxGeometry relative="1" as="geometry" />
        </mxCell>
        <mxCell id="7smrC5BkzZH1CydqaBpp-17" value="缓存规则" style="whiteSpace=wrap;html=1;align=center;" vertex="1" parent="f6uy8CiDOMCb5-gXpElu-1">
          <mxGeometry x="1040" y="990" width="100" height="40" as="geometry" />
        </mxCell>
        <mxCell id="z-ovHuIr4uMnay9UF5sv-5" style="edgeStyle=orthogonalEdgeStyle;rounded=0;orthogonalLoop=1;jettySize=auto;html=1;exitX=1;exitY=0.5;exitDx=0;exitDy=0;entryX=0;entryY=0.5;entryDx=0;entryDy=0;endArrow=none;endFill=0;" edge="1" parent="f6uy8CiDOMCb5-gXpElu-1" source="z-ovHuIr4uMnay9UF5sv-0" target="z-ovHuIr4uMnay9UF5sv-2">
          <mxGeometry relative="1" as="geometry" />
        </mxCell>
        <mxCell id="z-ovHuIr4uMnay9UF5sv-0" value="设置" style="shape=rhombus;perimeter=rhombusPerimeter;whiteSpace=wrap;html=1;align=center;" vertex="1" parent="f6uy8CiDOMCb5-gXpElu-1">
          <mxGeometry x="1380" y="320" width="120" height="60" as="geometry" />
        </mxCell>
        <mxCell id="z-ovHuIr4uMnay9UF5sv-6" style="rounded=0;orthogonalLoop=1;jettySize=auto;html=1;exitX=0;exitY=0.5;exitDx=0;exitDy=0;endArrow=none;endFill=0;" edge="1" parent="f6uy8CiDOMCb5-gXpElu-1" source="z-ovHuIr4uMnay9UF5sv-1">
          <mxGeometry relative="1" as="geometry">
            <mxPoint x="1500" y="350" as="targetPoint" />
          </mxGeometry>
        </mxCell>
        <mxCell id="z-ovHuIr4uMnay9UF5sv-1" value="缓存规则" style="whiteSpace=wrap;html=1;align=center;" vertex="1" parent="f6uy8CiDOMCb5-gXpElu-1">
          <mxGeometry x="1600" y="210" width="100" height="40" as="geometry" />
        </mxCell>
        <mxCell id="z-ovHuIr4uMnay9UF5sv-2" value="发送策略" style="whiteSpace=wrap;html=1;align=center;" vertex="1" parent="f6uy8CiDOMCb5-gXpElu-1">
          <mxGeometry x="1600" y="330" width="100" height="40" as="geometry" />
        </mxCell>
        <mxCell id="z-ovHuIr4uMnay9UF5sv-7" style="edgeStyle=none;rounded=0;orthogonalLoop=1;jettySize=auto;html=1;exitX=0;exitY=0.5;exitDx=0;exitDy=0;entryX=1;entryY=0.5;entryDx=0;entryDy=0;endArrow=none;endFill=0;" edge="1" parent="f6uy8CiDOMCb5-gXpElu-1" source="z-ovHuIr4uMnay9UF5sv-3" target="z-ovHuIr4uMnay9UF5sv-0">
          <mxGeometry relative="1" as="geometry" />
        </mxCell>
        <mxCell id="z-ovHuIr4uMnay9UF5sv-3" value="Entity" style="whiteSpace=wrap;html=1;align=center;" vertex="1" parent="f6uy8CiDOMCb5-gXpElu-1">
          <mxGeometry x="1600" y="460" width="100" height="40" as="geometry" />
        </mxCell>
        <mxCell id="z-ovHuIr4uMnay9UF5sv-16" style="edgeStyle=none;rounded=0;orthogonalLoop=1;jettySize=auto;html=1;exitX=1;exitY=1;exitDx=0;exitDy=0;endArrow=none;endFill=0;" edge="1" parent="f6uy8CiDOMCb5-gXpElu-1" source="z-ovHuIr4uMnay9UF5sv-8">
          <mxGeometry relative="1" as="geometry">
            <mxPoint x="230" y="350" as="targetPoint" />
          </mxGeometry>
        </mxCell>
        <mxCell id="z-ovHuIr4uMnay9UF5sv-8" value="AccountId" style="ellipse;whiteSpace=wrap;html=1;align=center;" vertex="1" parent="f6uy8CiDOMCb5-gXpElu-1">
          <mxGeometry x="90" y="240" width="100" height="40" as="geometry" />
        </mxCell>
        <mxCell id="z-ovHuIr4uMnay9UF5sv-17" style="edgeStyle=none;rounded=0;orthogonalLoop=1;jettySize=auto;html=1;exitX=1;exitY=0.5;exitDx=0;exitDy=0;endArrow=none;endFill=0;" edge="1" parent="f6uy8CiDOMCb5-gXpElu-1" source="z-ovHuIr4uMnay9UF5sv-9">
          <mxGeometry relative="1" as="geometry">
            <mxPoint x="230" y="350" as="targetPoint" />
          </mxGeometry>
        </mxCell>
        <mxCell id="z-ovHuIr4uMnay9UF5sv-9" value="用户名" style="ellipse;whiteSpace=wrap;html=1;align=center;" vertex="1" parent="f6uy8CiDOMCb5-gXpElu-1">
          <mxGeometry x="30" y="280" width="100" height="40" as="geometry" />
        </mxCell>
        <mxCell id="z-ovHuIr4uMnay9UF5sv-18" style="edgeStyle=none;rounded=0;orthogonalLoop=1;jettySize=auto;html=1;exitX=1;exitY=0.5;exitDx=0;exitDy=0;endArrow=none;endFill=0;" edge="1" parent="f6uy8CiDOMCb5-gXpElu-1" source="z-ovHuIr4uMnay9UF5sv-10">
          <mxGeometry relative="1" as="geometry">
            <mxPoint x="230" y="350" as="targetPoint" />
          </mxGeometry>
        </mxCell>
        <mxCell id="z-ovHuIr4uMnay9UF5sv-10" value="手机号" style="ellipse;whiteSpace=wrap;html=1;align=center;" vertex="1" parent="f6uy8CiDOMCb5-gXpElu-1">
          <mxGeometry x="30" y="330" width="100" height="40" as="geometry" />
        </mxCell>
        <mxCell id="z-ovHuIr4uMnay9UF5sv-19" style="edgeStyle=none;rounded=0;orthogonalLoop=1;jettySize=auto;html=1;exitX=1;exitY=0.5;exitDx=0;exitDy=0;endArrow=none;endFill=0;" edge="1" parent="f6uy8CiDOMCb5-gXpElu-1" source="z-ovHuIr4uMnay9UF5sv-11">
          <mxGeometry relative="1" as="geometry">
            <mxPoint x="230" y="350" as="targetPoint" />
          </mxGeometry>
        </mxCell>
        <mxCell id="z-ovHuIr4uMnay9UF5sv-11" value="邮箱" style="ellipse;whiteSpace=wrap;html=1;align=center;" vertex="1" parent="f6uy8CiDOMCb5-gXpElu-1">
          <mxGeometry x="50" y="380" width="100" height="40" as="geometry" />
        </mxCell>
        <mxCell id="z-ovHuIr4uMnay9UF5sv-20" style="edgeStyle=none;rounded=0;orthogonalLoop=1;jettySize=auto;html=1;exitX=1;exitY=0;exitDx=0;exitDy=0;entryX=0;entryY=0.5;entryDx=0;entryDy=0;endArrow=none;endFill=0;" edge="1" parent="f6uy8CiDOMCb5-gXpElu-1" source="z-ovHuIr4uMnay9UF5sv-12" target="7smrC5BkzZH1CydqaBpp-0">
          <mxGeometry relative="1" as="geometry" />
        </mxCell>
        <mxCell id="z-ovHuIr4uMnay9UF5sv-12" value="手机号" style="ellipse;whiteSpace=wrap;html=1;align=center;" vertex="1" parent="f6uy8CiDOMCb5-gXpElu-1">
          <mxGeometry x="80" y="430" width="100" height="40" as="geometry" />
        </mxCell>
        <mxCell id="z-ovHuIr4uMnay9UF5sv-15" style="edgeStyle=none;rounded=0;orthogonalLoop=1;jettySize=auto;html=1;exitX=1;exitY=1;exitDx=0;exitDy=0;entryX=0;entryY=0.5;entryDx=0;entryDy=0;endArrow=none;endFill=0;" edge="1" parent="f6uy8CiDOMCb5-gXpElu-1" source="z-ovHuIr4uMnay9UF5sv-13" target="7smrC5BkzZH1CydqaBpp-0">
          <mxGeometry relative="1" as="geometry" />
        </mxCell>
        <mxCell id="z-ovHuIr4uMnay9UF5sv-13" value="手机号" style="ellipse;whiteSpace=wrap;html=1;align=center;" vertex="1" parent="f6uy8CiDOMCb5-gXpElu-1">
          <mxGeometry x="130" y="190" width="100" height="40" as="geometry" />
        </mxCell>
        <mxCell id="z-ovHuIr4uMnay9UF5sv-26" style="edgeStyle=none;rounded=0;orthogonalLoop=1;jettySize=auto;html=1;exitX=0.5;exitY=1;exitDx=0;exitDy=0;entryX=0.5;entryY=0;entryDx=0;entryDy=0;endArrow=none;endFill=0;" edge="1" parent="f6uy8CiDOMCb5-gXpElu-1" source="z-ovHuIr4uMnay9UF5sv-21" target="7smrC5BkzZH1CydqaBpp-2">
          <mxGeometry relative="1" as="geometry" />
        </mxCell>
        <mxCell id="z-ovHuIr4uMnay9UF5sv-21" value="标题" style="ellipse;whiteSpace=wrap;html=1;align=center;" vertex="1" parent="f6uy8CiDOMCb5-gXpElu-1">
          <mxGeometry x="700" y="65" width="100" height="40" as="geometry" />
        </mxCell>
        <mxCell id="z-ovHuIr4uMnay9UF5sv-29" style="edgeStyle=none;rounded=0;orthogonalLoop=1;jettySize=auto;html=1;exitX=0;exitY=1;exitDx=0;exitDy=0;endArrow=none;endFill=0;" edge="1" parent="f6uy8CiDOMCb5-gXpElu-1" source="z-ovHuIr4uMnay9UF5sv-22">
          <mxGeometry relative="1" as="geometry">
            <mxPoint x="750" y="230" as="targetPoint" />
          </mxGeometry>
        </mxCell>
        <mxCell id="z-ovHuIr4uMnay9UF5sv-22" value="内容" style="ellipse;whiteSpace=wrap;html=1;align=center;" vertex="1" parent="f6uy8CiDOMCb5-gXpElu-1">
          <mxGeometry x="810" y="85" width="100" height="40" as="geometry" />
        </mxCell>
        <mxCell id="z-ovHuIr4uMnay9UF5sv-27" style="edgeStyle=none;rounded=0;orthogonalLoop=1;jettySize=auto;html=1;exitX=1;exitY=1;exitDx=0;exitDy=0;entryX=0.5;entryY=0;entryDx=0;entryDy=0;endArrow=none;endFill=0;" edge="1" parent="f6uy8CiDOMCb5-gXpElu-1" source="z-ovHuIr4uMnay9UF5sv-23" target="7smrC5BkzZH1CydqaBpp-2">
          <mxGeometry relative="1" as="geometry" />
        </mxCell>
        <mxCell id="z-ovHuIr4uMnay9UF5sv-23" value="分类" style="ellipse;whiteSpace=wrap;html=1;align=center;" vertex="1" parent="f6uy8CiDOMCb5-gXpElu-1">
          <mxGeometry x="590" y="75" width="100" height="40" as="geometry" />
        </mxCell>
        <mxCell id="z-ovHuIr4uMnay9UF5sv-28" style="edgeStyle=none;rounded=0;orthogonalLoop=1;jettySize=auto;html=1;exitX=1;exitY=0.5;exitDx=0;exitDy=0;endArrow=none;endFill=0;" edge="1" parent="f6uy8CiDOMCb5-gXpElu-1" source="z-ovHuIr4uMnay9UF5sv-24">
          <mxGeometry relative="1" as="geometry">
            <mxPoint x="750" y="230" as="targetPoint" />
          </mxGeometry>
        </mxCell>
        <mxCell id="z-ovHuIr4uMnay9UF5sv-24" value="作者" style="ellipse;whiteSpace=wrap;html=1;align=center;" vertex="1" parent="f6uy8CiDOMCb5-gXpElu-1">
          <mxGeometry x="540" y="135" width="100" height="40" as="geometry" />
        </mxCell>
        <mxCell id="z-ovHuIr4uMnay9UF5sv-30" style="edgeStyle=none;rounded=0;orthogonalLoop=1;jettySize=auto;html=1;exitX=0;exitY=1;exitDx=0;exitDy=0;entryX=0.5;entryY=0;entryDx=0;entryDy=0;endArrow=none;endFill=0;" edge="1" parent="f6uy8CiDOMCb5-gXpElu-1" source="z-ovHuIr4uMnay9UF5sv-25" target="7smrC5BkzZH1CydqaBpp-2">
          <mxGeometry relative="1" as="geometry" />
        </mxCell>
        <mxCell id="z-ovHuIr4uMnay9UF5sv-25" value="发布时间" style="ellipse;whiteSpace=wrap;html=1;align=center;" vertex="1" parent="f6uy8CiDOMCb5-gXpElu-1">
          <mxGeometry x="840" y="145" width="100" height="40" as="geometry" />
        </mxCell>
        <mxCell id="z-ovHuIr4uMnay9UF5sv-34" style="edgeStyle=none;rounded=0;orthogonalLoop=1;jettySize=auto;html=1;exitX=1;exitY=0.5;exitDx=0;exitDy=0;entryX=0;entryY=0.5;entryDx=0;entryDy=0;endArrow=none;endFill=0;" edge="1" parent="f6uy8CiDOMCb5-gXpElu-1" source="z-ovHuIr4uMnay9UF5sv-31" target="7smrC5BkzZH1CydqaBpp-14">
          <mxGeometry relative="1" as="geometry" />
        </mxCell>
        <mxCell id="z-ovHuIr4uMnay9UF5sv-31" value="启动获取" style="ellipse;whiteSpace=wrap;html=1;align=center;" vertex="1" parent="f6uy8CiDOMCb5-gXpElu-1">
          <mxGeometry x="645" y="938" width="100" height="40" as="geometry" />
        </mxCell>
        <mxCell id="z-ovHuIr4uMnay9UF5sv-35" style="edgeStyle=none;rounded=0;orthogonalLoop=1;jettySize=auto;html=1;exitX=1;exitY=0.5;exitDx=0;exitDy=0;endArrow=none;endFill=0;" edge="1" parent="f6uy8CiDOMCb5-gXpElu-1" source="z-ovHuIr4uMnay9UF5sv-32">
          <mxGeometry relative="1" as="geometry">
            <mxPoint x="830" y="1010" as="targetPoint" />
          </mxGeometry>
        </mxCell>
        <mxCell id="z-ovHuIr4uMnay9UF5sv-32" value="定时获取" style="ellipse;whiteSpace=wrap;html=1;align=center;" vertex="1" parent="f6uy8CiDOMCb5-gXpElu-1">
          <mxGeometry x="645" y="990" width="100" height="40" as="geometry" />
        </mxCell>
        <mxCell id="z-ovHuIr4uMnay9UF5sv-36" style="edgeStyle=none;rounded=0;orthogonalLoop=1;jettySize=auto;html=1;exitX=1;exitY=0.5;exitDx=0;exitDy=0;endArrow=none;endFill=0;" edge="1" parent="f6uy8CiDOMCb5-gXpElu-1" source="z-ovHuIr4uMnay9UF5sv-33">
          <mxGeometry relative="1" as="geometry">
            <mxPoint x="830" y="1010" as="targetPoint" />
          </mxGeometry>
        </mxCell>
        <mxCell id="z-ovHuIr4uMnay9UF5sv-33" value="实时获取" style="ellipse;whiteSpace=wrap;html=1;align=center;" vertex="1" parent="f6uy8CiDOMCb5-gXpElu-1">
          <mxGeometry x="645" y="1042" width="100" height="40" as="geometry" />
        </mxCell>
        <mxCell id="z-ovHuIr4uMnay9UF5sv-40" style="edgeStyle=none;rounded=0;orthogonalLoop=1;jettySize=auto;html=1;exitX=0;exitY=0.5;exitDx=0;exitDy=0;entryX=1;entryY=0.5;entryDx=0;entryDy=0;endArrow=none;endFill=0;" edge="1" parent="f6uy8CiDOMCb5-gXpElu-1" source="z-ovHuIr4uMnay9UF5sv-37" target="7smrC5BkzZH1CydqaBpp-17">
          <mxGeometry relative="1" as="geometry" />
        </mxCell>
        <mxCell id="z-ovHuIr4uMnay9UF5sv-37" value="Attribute" style="ellipse;whiteSpace=wrap;html=1;align=center;" vertex="1" parent="f6uy8CiDOMCb5-gXpElu-1">
          <mxGeometry x="1233" y="928" width="100" height="40" as="geometry" />
        </mxCell>
        <mxCell id="z-ovHuIr4uMnay9UF5sv-41" style="edgeStyle=none;rounded=0;orthogonalLoop=1;jettySize=auto;html=1;exitX=0;exitY=0.5;exitDx=0;exitDy=0;endArrow=none;endFill=0;" edge="1" parent="f6uy8CiDOMCb5-gXpElu-1" source="z-ovHuIr4uMnay9UF5sv-38">
          <mxGeometry relative="1" as="geometry">
            <mxPoint x="1140" y="1010" as="targetPoint" />
          </mxGeometry>
        </mxCell>
        <mxCell id="z-ovHuIr4uMnay9UF5sv-38" value="Attribute" style="ellipse;whiteSpace=wrap;html=1;align=center;" vertex="1" parent="f6uy8CiDOMCb5-gXpElu-1">
          <mxGeometry x="1233" y="990" width="100" height="40" as="geometry" />
        </mxCell>
        <mxCell id="z-ovHuIr4uMnay9UF5sv-42" style="edgeStyle=none;rounded=0;orthogonalLoop=1;jettySize=auto;html=1;exitX=0;exitY=0.5;exitDx=0;exitDy=0;endArrow=none;endFill=0;" edge="1" parent="f6uy8CiDOMCb5-gXpElu-1" source="z-ovHuIr4uMnay9UF5sv-39">
          <mxGeometry relative="1" as="geometry">
            <mxPoint x="1140" y="1010" as="targetPoint" />
          </mxGeometry>
        </mxCell>
        <mxCell id="z-ovHuIr4uMnay9UF5sv-39" value="Attribute" style="ellipse;whiteSpace=wrap;html=1;align=center;" vertex="1" parent="f6uy8CiDOMCb5-gXpElu-1">
          <mxGeometry x="1233" y="1049" width="100" height="40" as="geometry" />
        </mxCell>
        <mxCell id="z-ovHuIr4uMnay9UF5sv-47" style="edgeStyle=none;rounded=0;orthogonalLoop=1;jettySize=auto;html=1;exitX=1;exitY=0;exitDx=0;exitDy=0;entryX=0.5;entryY=1;entryDx=0;entryDy=0;endArrow=none;endFill=0;" edge="1" parent="f6uy8CiDOMCb5-gXpElu-1" source="z-ovHuIr4uMnay9UF5sv-43" target="7smrC5BkzZH1CydqaBpp-3">
          <mxGeometry relative="1" as="geometry" />
        </mxCell>
        <mxCell id="z-ovHuIr4uMnay9UF5sv-43" value="Attribute" style="ellipse;whiteSpace=wrap;html=1;align=center;" vertex="1" parent="f6uy8CiDOMCb5-gXpElu-1">
          <mxGeometry x="560" y="510" width="100" height="40" as="geometry" />
        </mxCell>
        <mxCell id="z-ovHuIr4uMnay9UF5sv-48" style="edgeStyle=none;rounded=0;orthogonalLoop=1;jettySize=auto;html=1;exitX=0.5;exitY=0;exitDx=0;exitDy=0;endArrow=none;endFill=0;" edge="1" parent="f6uy8CiDOMCb5-gXpElu-1" source="z-ovHuIr4uMnay9UF5sv-44">
          <mxGeometry relative="1" as="geometry">
            <mxPoint x="750" y="470" as="targetPoint" />
          </mxGeometry>
        </mxCell>
        <mxCell id="z-ovHuIr4uMnay9UF5sv-44" value="Attribute" style="ellipse;whiteSpace=wrap;html=1;align=center;" vertex="1" parent="f6uy8CiDOMCb5-gXpElu-1">
          <mxGeometry x="650" y="550" width="100" height="40" as="geometry" />
        </mxCell>
        <mxCell id="z-ovHuIr4uMnay9UF5sv-49" style="edgeStyle=none;rounded=0;orthogonalLoop=1;jettySize=auto;html=1;exitX=0.5;exitY=0;exitDx=0;exitDy=0;endArrow=none;endFill=0;" edge="1" parent="f6uy8CiDOMCb5-gXpElu-1" source="z-ovHuIr4uMnay9UF5sv-45">
          <mxGeometry relative="1" as="geometry">
            <mxPoint x="750" y="470" as="targetPoint" />
          </mxGeometry>
        </mxCell>
        <mxCell id="z-ovHuIr4uMnay9UF5sv-45" value="Attribute" style="ellipse;whiteSpace=wrap;html=1;align=center;" vertex="1" parent="f6uy8CiDOMCb5-gXpElu-1">
          <mxGeometry x="760" y="550" width="100" height="40" as="geometry" />
        </mxCell>
        <mxCell id="z-ovHuIr4uMnay9UF5sv-50" style="edgeStyle=none;rounded=0;orthogonalLoop=1;jettySize=auto;html=1;exitX=0;exitY=0;exitDx=0;exitDy=0;endArrow=none;endFill=0;" edge="1" parent="f6uy8CiDOMCb5-gXpElu-1" source="z-ovHuIr4uMnay9UF5sv-46">
          <mxGeometry relative="1" as="geometry">
            <mxPoint x="750" y="470" as="targetPoint" />
          </mxGeometry>
        </mxCell>
        <mxCell id="z-ovHuIr4uMnay9UF5sv-46" value="Attribute" style="ellipse;whiteSpace=wrap;html=1;align=center;" vertex="1" parent="f6uy8CiDOMCb5-gXpElu-1">
          <mxGeometry x="850" y="510" width="100" height="40" as="geometry" />
        </mxCell>
        <mxCell id="z-ovHuIr4uMnay9UF5sv-60" style="edgeStyle=none;rounded=0;orthogonalLoop=1;jettySize=auto;html=1;exitX=0;exitY=0.5;exitDx=0;exitDy=0;entryX=1;entryY=0.5;entryDx=0;entryDy=0;endArrow=none;endFill=0;" edge="1" parent="f6uy8CiDOMCb5-gXpElu-1" source="z-ovHuIr4uMnay9UF5sv-51" target="z-ovHuIr4uMnay9UF5sv-1">
          <mxGeometry relative="1" as="geometry" />
        </mxCell>
        <mxCell id="z-ovHuIr4uMnay9UF5sv-51" value="Attribute" style="ellipse;whiteSpace=wrap;html=1;align=center;fontStyle=4;" vertex="1" parent="f6uy8CiDOMCb5-gXpElu-1">
          <mxGeometry x="1790" y="115" width="100" height="40" as="geometry" />
        </mxCell>
        <mxCell id="z-ovHuIr4uMnay9UF5sv-61" style="edgeStyle=none;rounded=0;orthogonalLoop=1;jettySize=auto;html=1;exitX=0;exitY=0.5;exitDx=0;exitDy=0;endArrow=none;endFill=0;" edge="1" parent="f6uy8CiDOMCb5-gXpElu-1" source="z-ovHuIr4uMnay9UF5sv-52">
          <mxGeometry relative="1" as="geometry">
            <mxPoint x="1700" y="230" as="targetPoint" />
          </mxGeometry>
        </mxCell>
        <mxCell id="z-ovHuIr4uMnay9UF5sv-52" value="Attribute" style="ellipse;whiteSpace=wrap;html=1;align=center;fontStyle=4;" vertex="1" parent="f6uy8CiDOMCb5-gXpElu-1">
          <mxGeometry x="1790" y="165" width="100" height="40" as="geometry" />
        </mxCell>
        <mxCell id="z-ovHuIr4uMnay9UF5sv-62" style="edgeStyle=none;rounded=0;orthogonalLoop=1;jettySize=auto;html=1;exitX=0;exitY=0.5;exitDx=0;exitDy=0;endArrow=none;endFill=0;" edge="1" parent="f6uy8CiDOMCb5-gXpElu-1" source="z-ovHuIr4uMnay9UF5sv-53">
          <mxGeometry relative="1" as="geometry">
            <mxPoint x="1700" y="230" as="targetPoint" />
          </mxGeometry>
        </mxCell>
        <mxCell id="z-ovHuIr4uMnay9UF5sv-53" value="Attribute" style="ellipse;whiteSpace=wrap;html=1;align=center;fontStyle=4;" vertex="1" parent="f6uy8CiDOMCb5-gXpElu-1">
          <mxGeometry x="1790" y="220" width="100" height="40" as="geometry" />
        </mxCell>
        <mxCell id="z-ovHuIr4uMnay9UF5sv-63" style="edgeStyle=none;rounded=0;orthogonalLoop=1;jettySize=auto;html=1;exitX=0;exitY=0.5;exitDx=0;exitDy=0;entryX=1;entryY=0.5;entryDx=0;entryDy=0;endArrow=none;endFill=0;" edge="1" parent="f6uy8CiDOMCb5-gXpElu-1" source="z-ovHuIr4uMnay9UF5sv-54" target="z-ovHuIr4uMnay9UF5sv-2">
          <mxGeometry relative="1" as="geometry" />
        </mxCell>
        <mxCell id="z-ovHuIr4uMnay9UF5sv-54" value="Attribute" style="ellipse;whiteSpace=wrap;html=1;align=center;" vertex="1" parent="f6uy8CiDOMCb5-gXpElu-1">
          <mxGeometry x="1890" y="280" width="100" height="40" as="geometry" />
        </mxCell>
        <mxCell id="z-ovHuIr4uMnay9UF5sv-64" style="edgeStyle=none;rounded=0;orthogonalLoop=1;jettySize=auto;html=1;exitX=0;exitY=0.5;exitDx=0;exitDy=0;endArrow=none;endFill=0;" edge="1" parent="f6uy8CiDOMCb5-gXpElu-1" source="z-ovHuIr4uMnay9UF5sv-55">
          <mxGeometry relative="1" as="geometry">
            <mxPoint x="1700" y="350" as="targetPoint" />
          </mxGeometry>
        </mxCell>
        <mxCell id="z-ovHuIr4uMnay9UF5sv-55" value="Attribute" style="ellipse;whiteSpace=wrap;html=1;align=center;" vertex="1" parent="f6uy8CiDOMCb5-gXpElu-1">
          <mxGeometry x="1890" y="330" width="100" height="40" as="geometry" />
        </mxCell>
        <mxCell id="z-ovHuIr4uMnay9UF5sv-67" style="edgeStyle=none;rounded=0;orthogonalLoop=1;jettySize=auto;html=1;exitX=0;exitY=0.5;exitDx=0;exitDy=0;endArrow=none;endFill=0;" edge="1" parent="f6uy8CiDOMCb5-gXpElu-1" source="z-ovHuIr4uMnay9UF5sv-56">
          <mxGeometry relative="1" as="geometry">
            <mxPoint x="1700" y="350" as="targetPoint" />
          </mxGeometry>
        </mxCell>
        <mxCell id="z-ovHuIr4uMnay9UF5sv-56" value="Attribute" style="ellipse;whiteSpace=wrap;html=1;align=center;" vertex="1" parent="f6uy8CiDOMCb5-gXpElu-1">
          <mxGeometry x="1890" y="380" width="100" height="40" as="geometry" />
        </mxCell>
        <mxCell id="z-ovHuIr4uMnay9UF5sv-68" style="edgeStyle=none;rounded=0;orthogonalLoop=1;jettySize=auto;html=1;exitX=0;exitY=0.5;exitDx=0;exitDy=0;entryX=1;entryY=0.5;entryDx=0;entryDy=0;endArrow=none;endFill=0;" edge="1" parent="f6uy8CiDOMCb5-gXpElu-1" source="z-ovHuIr4uMnay9UF5sv-57" target="z-ovHuIr4uMnay9UF5sv-3">
          <mxGeometry relative="1" as="geometry" />
        </mxCell>
        <mxCell id="z-ovHuIr4uMnay9UF5sv-57" value="Attribute" style="ellipse;whiteSpace=wrap;html=1;align=center;" vertex="1" parent="f6uy8CiDOMCb5-gXpElu-1">
          <mxGeometry x="1790" y="430" width="100" height="40" as="geometry" />
        </mxCell>
        <mxCell id="z-ovHuIr4uMnay9UF5sv-69" style="edgeStyle=none;rounded=0;orthogonalLoop=1;jettySize=auto;html=1;exitX=0;exitY=0.5;exitDx=0;exitDy=0;endArrow=none;endFill=0;" edge="1" parent="f6uy8CiDOMCb5-gXpElu-1" source="z-ovHuIr4uMnay9UF5sv-58">
          <mxGeometry relative="1" as="geometry">
            <mxPoint x="1700" y="480" as="targetPoint" />
          </mxGeometry>
        </mxCell>
        <mxCell id="z-ovHuIr4uMnay9UF5sv-58" value="Attribute" style="ellipse;whiteSpace=wrap;html=1;align=center;" vertex="1" parent="f6uy8CiDOMCb5-gXpElu-1">
          <mxGeometry x="1790" y="480" width="100" height="40" as="geometry" />
        </mxCell>
        <mxCell id="z-ovHuIr4uMnay9UF5sv-70" style="edgeStyle=none;rounded=0;orthogonalLoop=1;jettySize=auto;html=1;exitX=0;exitY=0.5;exitDx=0;exitDy=0;endArrow=none;endFill=0;" edge="1" parent="f6uy8CiDOMCb5-gXpElu-1" source="z-ovHuIr4uMnay9UF5sv-59">
          <mxGeometry relative="1" as="geometry">
            <mxPoint x="1700" y="480" as="targetPoint" />
          </mxGeometry>
        </mxCell>
        <mxCell id="z-ovHuIr4uMnay9UF5sv-59" value="Attribute" style="ellipse;whiteSpace=wrap;html=1;align=center;" vertex="1" parent="f6uy8CiDOMCb5-gXpElu-1">
          <mxGeometry x="1790" y="530" width="100" height="40" as="geometry" />
        </mxCell>
      </root>
    </mxGraphModel>
  </diagram>
</mxfile>
